<svg xmlns="http://www.w3.org/2000/svg" width="21.384" height="21.384" viewBox="0 0 21.384 21.384">
  <g id="noun-close-4619407" transform="translate(-105.002 -35)">
    <path id="Path_76415" data-name="Path 76415" d="M115.694,35a10.7,10.7,0,1,0,7.557,3.135A10.692,10.692,0,0,0,115.694,35Zm0,19.857a9.174,9.174,0,1,1,6.477-2.687,9.164,9.164,0,0,1-6.477,2.687Z" transform="translate(0 0)" fill="#11142d"/>
    <path id="Path_76416" data-name="Path 76416" d="M269.706,192.729a.763.763,0,0,0-1.08,0l-2.515,2.515-2.515-2.515h0a.764.764,0,0,0-1.08,1.08l2.515,2.515-2.515,2.515h0a.764.764,0,1,0,1.08,1.08l2.515-2.515,2.515,2.515h0a.764.764,0,0,0,1.08-1.08l-2.515-2.515,2.515-2.515h0a.763.763,0,0,0,0-1.08Z" transform="translate(-150.418 -150.631)" fill="#11142d"/>
  </g>
</svg>
