<?xml version="1.0" encoding="UTF-8" standalone="no"?>
<!DOCTYPE svg PUBLIC "-//W3C//DTD SVG 1.1//EN" "http://www.w3.org/Graphics/SVG/1.1/DTD/svg11.dtd">
<svg xmlns="http://www.w3.org/2000/svg" xmlns:xlink="http://www.w3.org/1999/xlink" version="1.1" width="12pt" height="15pt" viewBox="0 0 12 15">
<g enable-background="new">
<path d="M 5.3291018 7.5029299 C 5.182617 7.0341799 5.185547 6.1289064 5.270508 6.1289064 C 5.5166018 6.1289064 5.493164 7.209961 5.3291018 7.5029299 Z M 5.279297 8.885742 C 5.053711 9.477539 4.772461 10.154297 4.4472658 10.722656 C 4.9833986 10.517578 5.5898439 10.21875 6.2900388 10.081055 C 5.9179689 9.799805 5.560547 9.395508 5.279297 8.885742 Z M 2.5224612 12.541992 C 2.5224612 12.56543 2.90918 12.383789 3.5449219 11.364258 C 3.3486326 11.548828 2.6923829 12.082031 2.5224612 12.541992 Z M 7.265625 4.6875007 L 11.25 4.6875007 L 11.25 14.296875 C 11.25 14.686524 10.936523 15 10.546875 15 L .703125 15 C .3134766 15 0 14.686524 0 14.296875 L 0 .703125 C 0 .3134766 .3134766 -.000000007888745 .703125 -.000000007888745 L 6.5625 -.000000007888745 L 6.5625 3.9843753 C 6.5625 4.371094 6.878906 4.6875007 7.265625 4.6875007 Z M 7.03125 9.720703 C 6.4453127 9.363281 6.0556647 8.871094 5.7802736 8.144532 C 5.912109 7.602539 6.120117 6.779298 5.961914 6.2636716 C 5.8242189 5.4023439 4.719727 5.4873049 4.561524 6.064453 C 4.4150397 6.600586 4.549805 7.3564455 4.7988288 8.320313 C 4.458985 9.128906 3.9580086 10.212891 3.6035157 10.833984 C 3.6005858 10.833984 3.6005858 10.836914 3.597656 10.836914 C 2.803711 11.244141 1.441406 12.140625 2.0009764 12.829102 C 2.165039 13.03125 2.4697266 13.12207 2.6308594 13.12207 C 3.1552733 13.12207 3.6767579 12.594727 4.4208986 11.311523 C 5.176758 11.0625 6.0058596 10.751953 6.735352 10.631836 C 7.3710949 10.977539 8.115235 11.203125 8.610352 11.203125 C 9.465821 11.203125 9.524415 10.265625 9.187501 9.931641 C 8.780273 9.533203 7.5966808 9.64746 7.03125 9.720702 L 7.03125 9.720703 Z M 11.044922 3.0761719 L 8.173829 .20507811 C 8.041992 .07324219 7.863282 -.000000007888745 7.6757819 -.000000007888745 L 7.5 -.000000007888745 L 7.5 3.75 L 11.25 3.75 L 11.25 3.5712889 C 11.25 3.3867188 11.176758 3.2080079 11.044922 3.0761719 Z M 8.874023 10.555664 C 8.994142 10.4765629 8.800782 10.207031 7.6201179 10.291992 C 8.707032 10.754883 8.874023 10.555664 8.874023 10.555664 Z " fill="#05a6f0"/>
</g>
</svg>
