<svg xmlns="http://www.w3.org/2000/svg" width="18.542" height="13.458" viewBox="0 0 18.542 13.458">
  <g id="noun-whistle-1678816" transform="translate(0.656) rotate(3)">
    <path id="Path_53398" data-name="Path 53398" d="M0,1.791A1.791,1.791,0,1,0,1.791,0,1.791,1.791,0,0,0,0,1.791" transform="translate(4.477 4.478)" fill="#9babc5"/>
    <path id="Path_53399" data-name="Path 53399" d="M6.268,0H17.463a.448.448,0,0,1,.448.448V4.03a.448.448,0,0,1-.376.448l-5.078.82a6.117,6.117,0,0,1,.081.972A6.269,6.269,0,1,1,6.269,0Zm0,8.955a2.687,2.687,0,1,0-1.9-.787A2.686,2.686,0,0,0,6.268,8.955Z" transform="translate(0 0)" fill="#9babc5"/>
  </g>
</svg>
