<svg xmlns="http://www.w3.org/2000/svg" xmlns:xlink="http://www.w3.org/1999/xlink" width="62" height="62" viewBox="0 0 62 62">
  <defs>
    <radialGradient id="radial-gradient" cx="0.314" cy="0.5" r="0.632" gradientTransform="translate(0.201 -0.111) rotate(20.471)" gradientUnits="objectBoundingBox">
      <stop offset="0" stop-color="#bcf0fd"/>
      <stop offset="1" stop-color="#17d0f9"/>
    </radialGradient>
  </defs>
  <g id="Group_49467" data-name="Group 49467" transform="translate(-3505 -4683)">
    <circle id="Ellipse_2103" data-name="Ellipse 2103" cx="31" cy="31" r="31" transform="translate(3505 4683)" fill="url(#radial-gradient)"/>
    <g id="noun-athlete-2767841" transform="translate(3518.5 4695.091)">
      <path id="Path_53354" data-name="Path 53354" d="M152.584,39.2a32.225,32.225,0,0,0-3.255,5.233,5.81,5.81,0,0,0-.235,5.071c1.1,1.99,3.705,2.779,6.8,3.182,1.977.258,4.168.363,6.375.447-2.055.3-4.063.54-5.83.857-2.6.521-5.124,1.282-6.214,3.518-1.067,2.578,0,5.6,1.857,8.526a44.217,44.217,0,0,0,5.261,6.45c-4.609-2.493-7.921-5.379-12.353-9.5a9.356,9.356,0,0,1-2.7-7.308c1.689-8.086,4.95-11.827,10.3-16.481Zm1.213,4.574a3.555,3.555,0,1,0,3.59,3.555A3.574,3.574,0,0,0,153.8,43.777ZM141.543,56.429a10.6,10.6,0,0,0,2.34,6.426c-3.6.125-6.079,1.151-8,3.033-1.726,1.694-2.994,4.175-4.3,7.134.017-6.757,4.106-12.279,9.952-16.593Z" transform="translate(-131.591 -39.203)" fill="#fff"/>
    </g>
  </g>
</svg>
