<svg id="Group_49192" data-name="Group 49192" xmlns="http://www.w3.org/2000/svg" width="17.88" height="17.876" viewBox="0 0 17.88 17.876">
  <path id="Path_53341" data-name="Path 53341" d="M383.895,52.606a8.755,8.755,0,0,0-4.825-2.207,7.578,7.578,0,0,0,1.861,5.172Z" transform="translate(-369.005 -50.334)" fill="#9babc5"/>
  <path id="Path_53342" data-name="Path 53342" d="M450.931,130.265a8.823,8.823,0,0,0-2.207-4.825L445.76,128.4a7.646,7.646,0,0,0,5.171,1.861Z" transform="translate(-433.12 -122.475)" fill="#9babc5"/>
  <path id="Path_53343" data-name="Path 53343" d="M203.166,54.67A8.61,8.61,0,0,1,201,48.72h-.152a8.883,8.883,0,0,0-5.972,2.272l5.994,5.972Z" transform="translate(-191.934 -48.72)" fill="#9babc5"/>
  <path id="Path_53344" data-name="Path 53344" d="M124.657,133.707l2.294-2.294-5.972-5.972a8.982,8.982,0,0,0-2.272,6.124,8.554,8.554,0,0,1,5.95,2.142Z" transform="translate(-118.706 -122.476)" fill="#9babc5"/>
  <path id="Path_53345" data-name="Path 53345" d="M375.884,222.244a8.468,8.468,0,0,1-5.669-2.164l-2.294,2.315,5.972,5.972a8.779,8.779,0,0,0,2.272-6.124h-.281Z" transform="translate(-358.289 -213.457)" fill="#9babc5"/>
  <path id="Path_53346" data-name="Path 53346" d="M290.64,300.213a8.611,8.611,0,0,1,2.164,5.951,8.982,8.982,0,0,0,6.124-2.272l-5.994-5.972Z" transform="translate(-283.995 -288.287)" fill="#9babc5"/>
  <path id="Path_53347" data-name="Path 53347" d="M120.4,309.068a8.75,8.75,0,0,0,2.207,4.847l2.964-2.986a7.54,7.54,0,0,0-5.172-1.861Z" transform="translate(-120.335 -299.005)" fill="#9babc5"/>
  <path id="Path_53348" data-name="Path 53348" d="M195.44,378.725a8.887,8.887,0,0,0,4.847,2.207,7.458,7.458,0,0,0-1.882-5.172Z" transform="translate(-192.474 -363.122)" fill="#9babc5"/>
</svg>
