<svg xmlns="http://www.w3.org/2000/svg" width="163" height="70" viewBox="0 0 163 70">
  <g id="Group_49148" data-name="Group 49148" transform="translate(-933 -62)">
    <g id="Rectangle_12601" data-name="Rectangle 12601" transform="translate(933 62)" fill="#fff" stroke="#adc2e1" stroke-width="1">
      <rect width="163" height="70" rx="5" stroke="none"/>
      <rect x="0.5" y="0.5" width="162" height="69" rx="4.5" fill="none"/>
    </g>
    <g id="Group_39863" data-name="Group 39863" transform="translate(951 75)">
      <g id="Group_57" data-name="Group 57" transform="translate(0)">
        <g id="Group_39458" data-name="Group 39458">
          <g id="Path_118" data-name="Path 118" transform="translate(0 18.162)">
            <path id="Path_5654" data-name="Path 5654" d="M3472.091-338.564l-3.546-3.7,22.477-21.546a1.41,1.41,0,0,1,.159.106c.062.054.115.116.171.175q5.076,5.295,10.149,10.591c.093.1.182.2.269.294-.1.188-10.822,10.494-11.149,10.736l-3.533-3.686,1.453-1.393,1.513-1.45,1.493-1.431,1.513-1.45c.493-.476.994-.948,1.46-1.4l-3.666-3.821c-.466.423-.937.894-1.422,1.355s-.957.916-1.435,1.376l-1.455,1.393-1.435,1.376-1.452,1.393-1.455,1.393-1.436,1.376-1.453,1.391-1.454,1.393-1.436,1.376-1.454,1.393-1.435,1.376Z" transform="translate(-3468.545 363.811)" fill="#4cb844" fill-rule="evenodd"/>
          </g>
          <g id="Path_119" data-name="Path 119" transform="translate(15.416 3.413)">
            <path id="Path_5655" data-name="Path 5655" d="M3541.858-426.808l10.773,11.24c.454-.388.854-.805,1.273-1.2s.837-.8,1.255-1.206l1.236-1.188,1.256-1.206,1.256-1.206,1.248-1.2c.2.108,3.365,3.387,3.549,3.656l-11.246,10.793c-.455-.432-.89-.916-1.342-1.382s-.9-.941-1.355-1.414l-1.337-1.4-1.355-1.414-1.355-1.414-1.355-1.414-1.337-1.4-1.379-1.438-3.781,3.638-3.488-3.677Z" transform="translate(-3534.373 426.808)" fill="#f47122" fill-rule="evenodd"/>
          </g>
          <g id="Path_120" data-name="Path 120" transform="translate(30.359)">
            <path id="Path_5656" data-name="Path 5656" d="M3601.679-434.282l-3.482-3.63,3.625-3.474,3.464,3.615C3605.213-437.629,3602.1-434.6,3601.679-434.282Z" transform="translate(-3598.197 441.385)" fill="#4cb844" fill-rule="evenodd"/>
          </g>
        </g>
      </g>
      <line id="Line_75" data-name="Line 75" y2="30.014" transform="translate(50.255 10.515)" fill="none" stroke="#888" stroke-width="0.4"/>
      <path id="Path_5893" data-name="Path 5893" d="M2.707-19.438V-36.1H6.532a2.846,2.846,0,0,1,2.655,1.178A7.13,7.13,0,0,1,9.939-31.4v.35a7.988,7.988,0,0,1-.705,3.762A2.719,2.719,0,0,1,6.616-26H5.244v6.57ZM5.244-28.1h.871a1,1,0,0,0,1.046-.621A7.585,7.585,0,0,0,7.4-31.085v-.322a6.41,6.41,0,0,0-.26-2.111.979.979,0,0,0-1.01-.635H5.244Zm6.4,8.661V-36.1h2.537v14.5h3.209v2.159Zm11.671-5.008L22.2-32.813h-.038l-1.022,8.368Zm-5.225,5.008L20.465-36.1h3.351l2.527,16.66H23.977l-.4-2.973H20.891l-.36,2.973Zm11.293,0v-6.654L26.585-36.1h2.423l1.647,6.229h.038L32.161-36.1h2.417l-2.66,10.009v6.654Zm6.525,0V-36.1h5.717v2.206H38.441v4.427h2.952v2.217H38.441v7.809Zm7.639,0V-36.1h2.537v16.66Zm5.13,0V-36.1H54.26v2.186H51.211v4.847h2.9v2.139h-2.9v5.3h3.161v2.186Zm7.725,0V-36.1h2.537v14.5h3.209v2.159Zm9.729-1.966h.833a1.153,1.153,0,0,0,1.018-.454,3.107,3.107,0,0,0,.317-1.666l-.009-8.226A3.919,3.919,0,0,0,67.97-33.6a1.157,1.157,0,0,0-1.094-.549h-.748Zm-2.537,1.969V-36.1h3.739A3.141,3.141,0,0,1,70-35.01a5.2,5.2,0,0,1,.825,3.192L70.83-24.3A6.462,6.462,0,0,1,70-20.611a3.143,3.143,0,0,1-2.75,1.174Z" transform="translate(54.852 42.515)"/>
      <rect id="Rectangle_12969" data-name="Rectangle 12969" width="67.843" height="18.682" transform="translate(57.559 25.505)" fill="#f47122"/>
      <path id="Path_5895" data-name="Path 5895" d="M3.516-6.179l-.621-.029V-.227H.967V-12.9h3.19a2.314,2.314,0,0,1,1.484.4,1.905,1.905,0,0,1,.645,1.116,9.17,9.17,0,0,1,.155,1.873A4.9,4.9,0,0,1,6.2-7.748a1.366,1.366,0,0,1-.909.814,1.175,1.175,0,0,1,.914.885,12.39,12.39,0,0,1,.259,3.21A20.859,20.859,0,0,0,6.534-.221H4.6q-.072-.144-.072-4.544a2.1,2.1,0,0,0-.2-1.122A.99.99,0,0,0,3.516-6.179ZM2.9-7.7h.771a.771.771,0,0,0,.544-.165,1,1,0,0,0,.245-.569,8.05,8.05,0,0,0,.068-1.235v-.078A3.329,3.329,0,0,0,4.358-11.1q-.172-.315-.8-.315H2.9ZM8.24-.223V-12.9h4.248v1.664H10.17v3.687h2.2v1.631h-2.2v4.029h2.408V-.223Zm5.877,0V-12.9h2.91a2.167,2.167,0,0,1,2.019.9,5.425,5.425,0,0,1,.572,2.675v.266A6.077,6.077,0,0,1,19.082-6.2a2.068,2.068,0,0,1-1.992.976H16.046v5Zm1.93-6.589h.663a.761.761,0,0,0,.8-.471,5.771,5.771,0,0,0,.187-1.8v-.245a4.876,4.876,0,0,0-.2-1.606.745.745,0,0,0-.767-.482H16.05ZM22.7-3.744a4.881,4.881,0,0,0,.169,1.553.671.671,0,0,0,.7.44.664.664,0,0,0,.691-.45,4.994,4.994,0,0,0,.165-1.545v-5.9a3.734,3.734,0,0,0-.169-1.314.649.649,0,0,0-.663-.414.7.7,0,0,0-.691.414,3.209,3.209,0,0,0-.2,1.307Zm3.658-.022A4.732,4.732,0,0,1,25.7-.992a2.44,2.44,0,0,1-2.12.914A2.486,2.486,0,0,1,21.438-1a4.637,4.637,0,0,1-.68-2.769v-5.8q0-3.485,2.844-3.485a2.437,2.437,0,0,1,2.113.885,4.391,4.391,0,0,1,.645,2.6Zm1.5-.022V-4.918h1.829v1.275a4.264,4.264,0,0,0,.179,1.487.67.67,0,0,0,.677.429A.65.65,0,0,0,31.2-2.08a2.972,2.972,0,0,0,.161-1.153,3.161,3.161,0,0,0-.287-1.393,4.946,4.946,0,0,0-.914-1.243l-.937-.965a5.754,5.754,0,0,1-1.019-1.419,3.784,3.784,0,0,1-.364-1.7,3.728,3.728,0,0,1,.605-2.33,2.51,2.51,0,0,1,2.081-.764,2.12,2.12,0,0,1,2,.886,5.2,5.2,0,0,1,.522,2.6v.785H31.271v-.907a3.923,3.923,0,0,0-.155-1.32.6.6,0,0,0-.608-.4.717.717,0,0,0-.648.3,1.674,1.674,0,0,0-.206.907,1.975,1.975,0,0,0,.2.965,5.216,5.216,0,0,0,.73.922L31.63-7.179a6.649,6.649,0,0,1,1.185,1.721,4.5,4.5,0,0,1,.4,1.9,4.614,4.614,0,0,1-.6,2.628,2.381,2.381,0,0,1-2.092.85,2.253,2.253,0,0,1-2.081-.947,5.293,5.293,0,0,1-.588-2.762ZM34.7-.223V-12.9h1.93V-.223Zm4.552,0v-11H37.767V-12.9H42.6v1.67H41.172v11Zm6.2-3.522a4.881,4.881,0,0,0,.169,1.553.671.671,0,0,0,.7.44.664.664,0,0,0,.691-.45,4.993,4.993,0,0,0,.165-1.545v-5.9A3.734,3.734,0,0,0,47-10.963a.649.649,0,0,0-.663-.414.7.7,0,0,0-.691.414,3.209,3.209,0,0,0-.2,1.307Zm3.658-.022a4.732,4.732,0,0,1-.663,2.773,2.44,2.44,0,0,1-2.12.914A2.486,2.486,0,0,1,44.186-1a4.637,4.637,0,0,1-.68-2.769v-5.8q0-3.485,2.844-3.485a2.437,2.437,0,0,1,2.113.885,4.391,4.391,0,0,1,.645,2.6Zm4.3-2.413-.621-.029V-.227H50.859V-12.9h3.19a2.314,2.314,0,0,1,1.484.4,1.905,1.905,0,0,1,.645,1.116,9.17,9.17,0,0,1,.155,1.873,4.9,4.9,0,0,1-.245,1.761,1.366,1.366,0,0,1-.907.814,1.175,1.175,0,0,1,.914.885,12.39,12.39,0,0,1,.259,3.209,20.857,20.857,0,0,0,.072,2.618H54.5q-.072-.144-.072-4.544a2.1,2.1,0,0,0-.2-1.12.99.99,0,0,0-.813-.294ZM52.8-7.706h.771a.771.771,0,0,0,.544-.165,1,1,0,0,0,.245-.569,8.049,8.049,0,0,0,.068-1.234v-.078A3.329,3.329,0,0,0,54.25-11.1q-.173-.317-.8-.317h-.656ZM59.284-.224V-5.285L57.16-12.9H59l1.253,4.738h.029L61.4-12.9h1.836L61.214-5.285V-.223Z" transform="translate(59.509 41.458)" fill="#fff"/>
    </g>
  </g>
</svg>
