<svg xmlns="http://www.w3.org/2000/svg" width="13.2" height="12.958" viewBox="0 0 13.2 12.958">
  <path id="Icon_simple-microsoftexcel" data-name="Icon simple-microsoftexcel" d="M12.954,1.914H8.532v.818h1.3V4.027h-1.3V4.44h1.3v1.3h-1.3V6.16h1.3V7.386h-1.3v.491h1.3V9.106h-1.3V9.6h1.3v1.236h-1.3v.9h4.422c.07-.021.128-.1.175-.246a1.206,1.206,0,0,0,.071-.35V2.064c0-.07-.024-.113-.071-.128A.605.605,0,0,0,12.954,1.914Zm-.574,8.918H10.259V9.6H12.38v1.236Zm0-1.726H10.259V7.877H12.38Zm0-1.72H10.259V6.165H12.38V7.386Zm0-1.65H10.259V4.441H12.38v1.3h0Zm0-1.715H10.259V2.733H12.38V4.02ZM0,1.71V11.94l7.788,1.347V.328L0,1.714ZM4.616,9.449q-.045-.12-.417-1.025c-.247-.6-.4-.954-.439-1.054H3.746L2.911,9.359,1.794,9.283,3.118,6.808,1.906,4.334l1.138-.06L3.8,6.21h.015l.85-2.025,1.176-.074L4.437,6.79,5.88,9.522,4.616,9.448Z" transform="translate(0 -0.329)" fill="#05a6f0"/>
</svg>
