<svg xmlns="http://www.w3.org/2000/svg" width="18.934" height="12.049" viewBox="0 0 18.934 12.049">
  <path id="Icon_material-group" data-name="Icon material-group" d="M14.409,12.664a2.582,2.582,0,1,0-2.582-2.582A2.571,2.571,0,0,0,14.409,12.664Zm-6.885,0a2.582,2.582,0,1,0-2.582-2.582A2.571,2.571,0,0,0,7.524,12.664Zm0,1.721C5.519,14.385,1.5,15.392,1.5,17.4v2.152H13.549V17.4C13.549,15.392,9.53,14.385,7.524,14.385Zm6.885,0c-.25,0-.534.017-.835.043a3.632,3.632,0,0,1,1.7,2.969v2.152h5.164V17.4C20.434,15.392,16.415,14.385,14.409,14.385Z" transform="translate(-1.5 -7.5)" fill="#9babc5"/>
</svg>
