<svg xmlns="http://www.w3.org/2000/svg" width="17" height="16.999" viewBox="0 0 17 16.999">
  <g id="noun-profile-1995063" transform="translate(0)">
    <path id="Path_53400" data-name="Path 53400" d="M92.5,14a8.5,8.5,0,1,0,8.5,8.5A8.507,8.507,0,0,0,92.5,14Zm0,3.722a2.111,2.111,0,1,1-2.112,2.111A2.115,2.115,0,0,1,92.5,17.722Zm3.472,8.643a.378.378,0,0,1-.376.376H89.4a.378.378,0,0,1-.376-.376V25.13a2.482,2.482,0,0,1,2.487-2.487h1.969a2.482,2.482,0,0,1,2.487,2.487Z" transform="translate(-84 -14)" fill="#9babc5"/>
  </g>
</svg>
