<svg id="Group_49454" data-name="Group 49454" xmlns="http://www.w3.org/2000/svg" width="10.276" height="15.313" viewBox="0 0 10.276 15.313">
  <path id="Icon_awesome-caret-down" data-name="Icon awesome-caret-down" d="M1.486,13.5h8.892a.69.69,0,0,1,.487,1.179L6.421,19.126a.693.693,0,0,1-.978,0L1,14.679A.69.69,0,0,1,1.486,13.5Z" transform="translate(-0.794 -4.015)" fill="#7c8db5"/>
  <path id="Icon_awesome-caret-down-2" data-name="Icon awesome-caret-down" d="M.691,0H9.584a.69.69,0,0,1,.487,1.179L5.627,5.626a.693.693,0,0,1-.978,0L.2,1.179A.69.69,0,0,1,.691,0Z" transform="translate(10.275 5.829) rotate(180)" fill="#7c8db5"/>
</svg>
