<svg xmlns="http://www.w3.org/2000/svg" xmlns:xlink="http://www.w3.org/1999/xlink" width="278" height="221" viewBox="0 0 278 221">
  <defs>
    <linearGradient id="linear-gradient" y1="1" x2="1" gradientUnits="objectBoundingBox">
      <stop offset="0" stop-color="#5c6ccd"/>
      <stop offset="1" stop-color="#5753b5"/>
    </linearGradient>
    <clipPath id="clip-path">
      <rect id="Rectangle_179" data-name="Rectangle 179" width="277" height="338" transform="translate(0 0.104)" fill="url(#linear-gradient)"/>
    </clipPath>
    <linearGradient id="linear-gradient-2" x1="0.5" x2="0.5" y2="1" gradientUnits="objectBoundingBox">
      <stop offset="0" stop-color="#a7a7ff"/>
      <stop offset="1" stop-color="#fff" stop-opacity="0"/>
    </linearGradient>
    <linearGradient id="linear-gradient-4" x1="0.5" x2="0.5" y2="1" gradientUnits="objectBoundingBox">
      <stop offset="0" stop-color="#54d8ff"/>
      <stop offset="1" stop-color="#fff" stop-opacity="0"/>
    </linearGradient>
    <clipPath id="clip-iPhone_13_12_Pro_2">
      <rect width="278" height="221"/>
    </clipPath>
  </defs>
  <g id="iPhone_13_12_Pro_2" data-name="iPhone 13, 12 Pro – 2" clip-path="url(#clip-iPhone_13_12_Pro_2)">
    <rect width="278" height="221" fill="#fff"/>
    <g id="Group_49451" data-name="Group 49451" transform="translate(0 -117.104)" opacity="0.39">
      <g id="Group_4" data-name="Group 4" transform="translate(0 0)" clip-path="url(#clip-path)">
        <g id="Products_Sold_Graph" data-name="Products Sold Graph" transform="translate(-190.807 100.783)" opacity="0.201">
          <path id="Filled.Graph" d="M330,464.4V387.636s107.157,50.353,192.775,53.515c92.58-3.065,108.612-24.614,180.725-53.515,61.624-24.089,123.08-30.7,182.066-29s110.112,27.725,179.789,30.392c122.917-10.744,185.63-65.064,193.934-87.752V492.953L330,493.039Z" transform="translate(-330 -300.382)" opacity="0.7" fill="url(#linear-gradient-2)"/>
          <path id="Line.Graph" d="M313,332.7s106.465,51.553,190.643,52.663,116.512-26.6,180.987-52.594,125.769-30.427,182.2-29.553,111.289,28.11,180.625,29.556,181.508-47.081,193.981-87.526" transform="translate(-312.147 -245.24)" fill="none" stroke="#a3a0fb" stroke-width="2"/>
          <g id="Mar.Ellipse" transform="translate(368.398 83.568)" fill="#fff" stroke="#a4a1fb" stroke-width="2">
            <circle cx="4.258" cy="4.258" r="4.258" stroke="none"/>
            <circle cx="4.258" cy="4.258" r="3.258" fill="none"/>
          </g>
          <g id="Feb.Ellipse" transform="translate(245.269 131.326)" fill="#fff" stroke="#a4a1fb" stroke-width="2">
            <circle cx="4.258" cy="4.258" r="4.258" stroke="none"/>
            <circle cx="4.258" cy="4.258" r="3.258" fill="none"/>
          </g>
        </g>
        <g id="Products_Sold_Graph-2" data-name="Products Sold Graph" transform="translate(-234.919 182.769)" opacity="0.201">
          <path id="Filled.Graph-2" data-name="Filled.Graph" d="M330,464.4V387.636s107.157,50.353,192.775,53.515c92.58-3.065,108.612-24.614,180.725-53.515,61.624-24.089,123.08-30.7,182.066-29s110.112,27.725,179.789,30.392c122.917-10.744,185.63-65.064,193.934-87.752V492.953L330,493.039Z" transform="translate(-330 -300.382)" opacity="0.7" fill="url(#linear-gradient-2)"/>
          <path id="Line.Graph-2" data-name="Line.Graph" d="M313,332.7s106.465,51.553,190.643,52.663,116.512-26.6,180.987-52.594,125.769-30.427,182.2-29.553,111.289,28.11,180.625,29.556,181.508-47.081,193.981-87.526" transform="translate(-312.147 -245.24)" fill="none" stroke="#a3a0fb" stroke-width="2"/>
          <g id="Mar.Ellipse-2" data-name="Mar.Ellipse" transform="translate(368.398 83.568)" fill="#fff" stroke="#a4a1fb" stroke-width="2">
            <circle cx="4.258" cy="4.258" r="4.258" stroke="none"/>
            <circle cx="4.258" cy="4.258" r="3.258" fill="none"/>
          </g>
        </g>
        <g id="Total_Views_Graph" data-name="Total Views Graph" transform="translate(-245.009 108.63)" opacity="0.201">
          <path id="Filled.Graph-3" data-name="Filled.Graph" d="M330,471.648V354.422S434.587,470.969,520.5,475.356c95.858-.988,96.644-60.5,180.879-93.086,70.519-25.583,124.328,44.2,183.315,45.9s99.695-47.828,180.17-51.269c104.265,5.182,187.93,71.356,194.422,74.914V500.2L330,500.284Z" transform="translate(-329.424 -354.422)" opacity="0.7" fill="url(#linear-gradient-4)"/>
          <path id="Line.Graph-3" data-name="Line.Graph" d="M312.953,279.164S420.8,397.859,505.078,398.969s113.1-69.935,180.778-93.887,126.379,45.687,182.88,46.56,110.6-52.318,180.018-50.872,148.793,41.682,192.673,73.422" transform="translate(-312.953 -278.171)" fill="none" stroke="#54d8ff" stroke-width="2"/>
          <g id="May.Ellipse" transform="translate(729.524 18.125)" fill="#fff" stroke="#55d8fe" stroke-width="2">
            <circle cx="4.258" cy="4.258" r="4.258" stroke="none"/>
            <circle cx="4.258" cy="4.258" r="3.258" fill="none"/>
          </g>
          <g id="Mar.Ellipse-3" data-name="Mar.Ellipse" transform="translate(396.367 17.834)" fill="#fff" stroke="#55d8fe" stroke-width="2">
            <circle cx="4.258" cy="4.258" r="4.258" stroke="none"/>
            <circle cx="4.258" cy="4.258" r="3.258" fill="none"/>
          </g>
        </g>
        <g id="Total_Views_Graph-2" data-name="Total Views Graph" transform="translate(-350.158 147.454)" opacity="0.201">
          <path id="Filled.Graph-4" data-name="Filled.Graph" d="M330,471.648V354.422S434.587,470.969,520.5,475.356c95.858-.988,96.644-60.5,180.879-93.086,70.519-25.583,124.328,44.2,183.315,45.9s99.695-47.828,180.17-51.269c104.265,5.182,187.93,71.356,194.422,74.914V500.2L330,500.284Z" transform="translate(-329.771 -354.422)" opacity="0.7" fill="url(#linear-gradient-4)"/>
          <path id="Line.Graph-4" data-name="Line.Graph" d="M312.953,279.164S420.8,397.859,505.078,398.969s113.1-69.935,180.778-93.887,126.379,45.687,182.88,46.56,110.6-52.318,180.018-50.872,148.793,41.682,192.673,73.422" transform="translate(-312.953 -278.171)" fill="none" stroke="#54d8ff" stroke-width="2"/>
          <g id="Apr.Ellipse" transform="translate(585.97 64.155)" fill="#fff" stroke="#55d8fe" stroke-width="2">
            <circle cx="4.258" cy="4.258" r="4.258" stroke="none"/>
            <circle cx="4.258" cy="4.258" r="3.258" fill="none"/>
          </g>
          <g id="Mar.Ellipse-4" data-name="Mar.Ellipse" transform="translate(367.768 22.443)" fill="#fff" stroke="#55d8fe" stroke-width="2">
            <circle cx="4.258" cy="4.258" r="4.258" stroke="none"/>
            <circle cx="4.258" cy="4.258" r="3.258" fill="none"/>
          </g>
        </g>
      </g>
    </g>
  </g>
</svg>
